<?xml version="1.0" encoding="utf-8"?>
<!-- Generator: Adobe Illustrator 16.0.0, SVG Export Plug-In . SVG Version: 6.00 Build 0)  -->
<!DOCTYPE svg PUBLIC "-//W3C//DTD SVG 1.1//EN" "http://www.w3.org/Graphics/SVG/1.1/DTD/svg11.dtd">
<svg version="1.1" id="Layer_1" xmlns="http://www.w3.org/2000/svg" xmlns:xlink="http://www.w3.org/1999/xlink" x="0px" y="0px"
	 width="432.046px" height="199.953px" viewBox="0 0 432.046 199.953" enable-background="new 0 0 432.046 199.953"
	 xml:space="preserve">
<g>
	<g>
		<g>
			<g>
				<g>
					<path fill="#FFFFFF" d="M165.566,102.491c-1.693,0.108-1.972-5.9-0.508-6.774c0.904-0.546,1.928,0.888,2.883,1.377
						c2.354,1.203,4.851,1.967,7.476,2.172c1.491,0.115,3.056,0.163,4.493-0.165c3.732-0.857,7.268-2.345,10.716-4.02
						c2.192-1.076,4.166-2.48,5.774-4.338c0.77-0.882,1.479-1.822,2.121-2.794c1.229-1.874,2.514-3.731,3.547-5.709
						c2.326-4.496,3.552-9.345,4.095-14.354c0.338-3.102,0.479-6.227,0.649-9.353c0.082-1.424,0.144-2.874,0.02-4.294
						c-0.316-3.588-0.712-7.171-1.152-10.747c-0.134-1.086-0.402-2.196-0.826-3.201c-1.121-2.64-2.4-5.209-4.06-7.558
						c-1.808-2.565-3.989-4.817-6.29-6.931c-2.846-2.613-5.716-5.201-8.593-7.773c-2.093-1.872-4.3-3.562-6.933-4.647
						c-2.174-0.896-4.399-1.728-6.438-2.882c-1.682-0.952-3.457-1.41-5.271-1.846c-0.818-0.195-1.654-0.373-2.492-0.482
						c-4.711-0.602-9.416-1.025-14.172-0.358c-3.531,0.493-7.086,0.729-10.604,1.396c-3.479,0.659-6.912,1.417-10.193,2.777
						c-1.633,0.676-3.31,1.271-4.701,2.4c-1.229,0.996-2.439,2.015-3.594,3.095c-2.574,2.412-4.527,5.224-5.301,8.732
						c-0.124,0.559-0.117,1.146-0.225,1.711c-0.346,1.8-0.842,3.582-1.031,5.396c-0.21,2.037-0.313,4.11,0.169,6.152
						c0.367,1.536,1.896,3.306,1.028,4.629c-0.692,1.06-3.979,1.683-4.982,0.913c-0.37-0.281-0.24-0.82-0.37-1.19
						c-0.881-2.475-1.425-5.009-1.467-7.654c-0.019-1.321-0.224-2.639-0.313-3.961c-0.166-2.407,0.123-4.784,0.785-7.093
						c0.33-1.157,0.829-2.294,1.438-3.331c0.876-1.484,1.894-2.885,2.907-4.278c0.621-0.861,1.341-1.658,2.039-2.464
						c0.816-0.942,1.658-1.869,2.494-2.795c0.125-0.135,0.271-0.251,0.422-0.358c3.962-2.887,8.085-5.484,12.667-7.321
						c3.457-1.383,6.932-2.673,10.627-3.275c0.252-0.043,0.502-0.104,0.761-0.131c3.028-0.338,6.056-0.71,9.09-0.987
						c1.492-0.136,3.019-0.254,4.499-0.1c2.914,0.3,5.854,0.504,8.723,1.183c0.855,0.202,1.736,0.323,2.576,0.574
						c0.473,0.14,0.885,0.479,1.329,0.713c0.222,0.118,0.45,0.264,0.692,0.293c2.556,0.345,4.799,1.609,7.166,2.488
						c1.158,0.43,2.187,1.207,3.271,1.82c1.793,1.012,3.565,2.053,5.382,3.013c1.18,0.623,2.268,1.342,3.318,2.158
						c1.771,1.376,3.658,2.599,5.439,3.961c1.135,0.868,2.174,1.861,3.244,2.812c1.369,1.221,2.729,2.466,4.096,3.686
						c1.852,1.654,3.502,3.466,4.699,5.668c0.976,1.803,2.022,3.575,3.041,5.358c0.092,0.158,0.183,0.321,0.309,0.465
						c1.557,1.791,2.4,3.939,3.027,6.188c0.523,1.877,1.055,3.75,1.594,5.627c0.961,3.382,1.434,6.822,1.328,10.354
						c-0.156,5.307-0.555,10.58-1.637,15.787c-0.855,4.106-2.313,7.977-4.451,11.587c-0.264,0.44-0.531,0.891-0.703,1.373
						c-0.633,1.758-1.639,3.29-2.877,4.668c-1.896,2.104-3.767,4.234-5.728,6.274c-2.099,2.188-4.629,3.846-7.125,5.549
						c-2.006,1.362-4.231,2.146-6.481,2.965c-2.957,1.086-6.01,1.006-9.047,0.963c-1.479-0.012-3-0.367-4.435-0.779
						c-2.263-0.657-4.465-1.496-6.688-2.256"/>
				</g>
				<path fill="#FFFFFF" d="M111.001,61.748c1.903-1.836,3.87-3.614,5.678-5.535c2.916-3.101,6.093-5.93,8.966-9.076
					c2.728-2.991,5.656-5.8,8.534-8.651c0.813-0.802,1.767-1.468,2.648-2.201c0.336-0.273,0.668-0.548,0.981-0.841
					c1.813-1.681,3.625-3.362,5.424-5.054c0.646-0.61,1.277-1.239,1.885-1.895c0.777-0.838,1.195-0.858,1.974-0.021
					c0.101,0.105,0.175,0.247,0.291,0.315c1.742,1.032,2.729,2.871,4.333,4.046c0.605,0.981,1.575,1.573,2.417,2.308
					c0.472,0.411,0.849,0.934,1.317,1.354c0.914,0.826,1.898,1.579,2.791,2.435c1.011,0.97,1.957,2.019,2.933,3.032
					c0.556,0.577,1.106,1.166,1.675,1.73c1.875,1.853,3.746,3.708,5.653,5.535c0.532,0.511,1.161,0.924,1.743,1.385
					c0.396,0.317,0.79,0.639,1.229,0.991c0.043,0.988-0.002,1.107-1.02,1.164c-0.911,0.05-1.825-0.058-2.744-0.093
					c-0.688-0.023-1.368-0.073-2.05-0.039c-1.669,0.087-3.302,0.424-4.947,0.691c-1.415,0.23-2.862,0.238-4.292,0.395
					c-3.087,0.33-6.171,0.668-9.251,1.052c-1.683,0.211-3.349,0.535-5.024,0.793c-0.531,0.081-0.953,0.285-1.328,0.698
					c-0.563,0.614-1.188,1.172-1.812,1.726c-2.944,2.618-5.558,5.575-8.385,8.313c-4.194,4.064-8.052,8.443-12.158,12.589
					c-0.812,0.821-1.649,1.592-2.606,2.234c-0.571,0.389-1.074,0.877-1.66,1.235c-0.909,0.545-1.867,1.014-2.799,1.52
					c-0.707,0.387-1.4,0.786-2.102,1.182c-0.65,0.367-1.314,0.708-1.944,1.109c-0.72,0.465-1.47,0.914-2.098,1.487
					c-1.275,1.165-2.354,2.5-3.22,4.024c-0.978,1.717-2.063,3.384-3.079,5.087c-0.335,0.565-0.582,1.184-0.883,1.772
					c-0.547,1.071-1.117,2.14-1.652,3.217c-0.495,1.009-1.044,1.994-1.413,3.037c-0.499,1.396-1.174,2.681-1.939,3.933
					c-1.589,2.604-3.108,5.242-4.676,7.857c-0.456,0.764-0.985,1.482-1.479,2.221c-0.991,1.479-1.975,2.961-2.972,4.437
					c-0.19,0.282-0.435,0.532-0.653,0.804c-0.194,0.245-0.437,0.471-0.565,0.744c-0.344,0.729-0.897,1.249-1.506,1.746
					c-0.668,0.547-1.286,1.146-1.935,1.712c-0.19,0.171-0.394,0.334-0.615,0.462c-1.213,0.694-2.387,1.438-3.709,1.979
					c-3.587,1.469-7.197,2.867-10.913,3.983c-1.398,0.414-2.831,0.79-4.185,1.335c-1.791,0.717-3.464,1.67-4.945,2.938
					c-1.93,1.648-3.78,3.386-5.29,5.42c-1.1,1.492-2.055,3.109-2.958,4.738c-0.729,1.324-1.354,2.729-1.914,4.14
					c-0.813,2.021-1.484,4.104-2.301,6.122c-0.557,1.38-1.225,2.723-1.916,4.043c-0.26,0.497-0.735,0.875-1.084,1.334
					c-1.231,1.632-2.927,2.74-4.437,4.063c-0.149,0.131-0.336,0.229-0.512,0.312c-2.701,1.304-5.504,1.766-8.453,1.038
					c-1.033-0.252-2.073-0.473-3.107-0.719c-0.813-0.19-1.214-0.703-1.241-1.648c0.827-0.369,1.713-0.549,2.646-0.477
					c0.228,0.02,0.455,0.088,0.681,0.067c1.401-0.128,2.801-0.254,4.197-0.431c0.474-0.061,0.955-0.211,1.39-0.402
					c1.223-0.529,2.321-1.266,3.298-2.174c0.94-0.878,1.513-2.012,2.142-3.111c0.706-1.252,1.193-2.604,1.744-3.931
					c1.079-2.603,2.31-5.138,3.476-7.699c0.198-0.442,0.402-0.888,0.555-1.351c0.784-2.354,1.604-4.695,2.871-6.825
					c1.186-2.001,2.574-3.876,4.621-5.135c0.51-0.313,0.976-0.71,1.433-1.106c0.815-0.708,1.688-1.275,2.719-1.635
					c0.78-0.271,1.526-0.66,2.294-0.979c3.59-1.494,7.32-2.595,11.049-3.641c2.416-0.682,4.627-1.706,6.836-2.816
					c0.153-0.071,0.311-0.156,0.444-0.254c3.521-2.629,6.838-5.475,9.264-9.179c1.099-1.682,2.24-3.351,2.845-5.308
					c0.018-0.057,0.044-0.105,0.066-0.158c1.231-2.527,2.459-5.063,3.691-7.594c0.798-1.627,1.582-3.254,2.396-4.872
					c0.337-0.664,0.732-1.303,1.104-1.946c0.173-0.298,0.373-0.586,0.535-0.89c1.24-2.336,2.507-4.653,3.693-7.012
					c1.88-3.752,4.63-6.672,8.222-8.831c2.567-1.542,5.301-2.758,7.993-4.049c0.457-0.221,0.804-0.516,1.117-0.905
					c0.485-0.605,1.057-1.14,1.572-1.717c2.361-2.668,4.85-5.218,7.403-7.703c3.043-2.97,6.021-6.005,9.071-8.971
					c1.336-1.301,2.781-2.489,4.173-3.74c0.512-0.46,0.995-0.956,1.497-1.428c0.387-0.366,0.826-0.552,1.384-0.601
					c1.085-0.096,2.159-0.296,3.231-0.462c1.905-0.292,3.813-0.554,5.707-0.89c1.328-0.236,2.64-0.561,3.949-0.87
					c1.848-0.436,3.69-0.883,5.527-1.347c0.513-0.131,1.057-0.225,1.51-0.521c-0.4-1.117-0.923-1.425-1.904-1.011
					c-1.605,0.687-3.354,1.044-4.834,2.041c-0.502,0.34-0.759,0.229-1.203-0.217c-1.765-1.765-3.543-3.515-5.302-5.284
					c-0.487-0.489-0.956-0.995-1.396-1.523c-0.713-0.857-0.697-1.232-0.086-2.154c0.601-0.913,1.175-1.84,1.74-2.771
					c0.121-0.199,0.168-0.448,0.109-0.753c-0.195,0.192-0.413,0.369-0.586,0.584c-1.061,1.363-2.313,2.538-3.577,3.715
					c-3.26,3.03-6.606,5.968-9.657,9.231c-3.041,3.251-6.111,6.481-9.365,9.53c-2.428,2.281-4.658,4.765-6.996,7.14
					c-1.408,1.437-2.781,2.924-4.307,4.229c-1.961,1.678-4.064,3.168-6.422,4.304c-1.78,0.855-3.438,1.972-5.146,2.972
					c-0.197,0.12-0.366,0.282-0.569,0.384c-2.765,1.381-4.898,3.604-7.336,5.419c-0.226,0.17-0.453,0.386-0.593,0.623
					c-1.031,1.683-2.516,2.988-3.729,4.51c-0.735,0.926-1.378,1.907-2.069,2.859c-1.294,1.792-2.551,3.615-3.897,5.373
					c-0.857,1.118-1.742,2.208-2.325,3.512c-0.123,0.282-0.325,0.54-0.508,0.792c-0.594,0.81-1.16,1.642-1.809,2.415
					c-0.702,0.834-1.445,1.636-2.226,2.396c-1.486,1.45-3.143,2.691-4.938,3.734c-1.533,0.892-3.16,1.494-4.896,1.845
					c-2.111,0.431-4.212,0.935-6.315,1.386c-0.928,0.204-1.88,0.318-2.789,0.566c-1.465,0.402-2.925,0.861-4.359,1.348
					c-1.523,0.518-3.027,1.092-4.533,1.662c-1.937,0.732-3.646,1.822-5.168,3.214c-0.832,0.759-1.665,1.509-2.491,2.263
					c-0.129,0.115-0.257,0.236-0.351,0.373c-2.092,3.099-4.229,6.183-5.723,9.629c-1.021,2.361-2.33,4.547-3.886,6.584
					c-0.263,0.338-0.572,0.644-0.895,0.928c-0.71,0.624-1.408,1.279-2.181,1.827c-0.93,0.659-1.914,1.271-2.919,1.813
					c-1.462,0.795-2.934,1.586-4.597,1.914c-0.613,0.118-1.236,0.219-1.862,0.297c-0.513,0.063-1.034,0.047-1.547,0.129
					c-2.98,0.457-5.767-0.166-8.457-1.439c-0.721-0.346-1.465-0.654-2.193-0.997c-0.541-0.255-1.063-0.563-1.614-0.797
					c-0.576-0.244-1.184-0.429-1.779-0.626c-0.536-0.178-1.036-0.434-1.656-0.379c-0.27,0.023-0.644-0.317-0.846-0.588
					c-0.186-0.252,0.084-0.814,0.509-0.963c0.557-0.197,1.176-0.396,1.74-0.345c1.467,0.122,2.863,0.5,4.234,1.089
					c1.388,0.6,2.869,1.01,4.334,1.393c0.591,0.146,1.253,0.037,1.884-0.001c1.028-0.06,2.059-0.2,3.088-0.214
					c1.065-0.019,2.096-0.232,2.95-0.832c1.696-1.182,3.4-2.375,4.942-3.739c1.235-1.097,2.266-2.418,2.963-3.979
					c0.559-1.248,1.327-2.41,2-3.619c1.55-2.787,3.387-5.393,5.073-8.088c0.289-0.461,0.712-0.828,1.027-1.281
					c1.091-1.563,2.47-2.84,3.874-4.119c1.368-1.25,2.775-2.363,4.443-3.201c1.357-0.682,2.583-1.625,3.905-2.363
					c1.913-1.072,3.868-2.001,6.027-2.494c1.966-0.451,3.88-1.062,5.822-1.58c0.829-0.219,1.676-0.357,2.371-0.938
					c0.294-0.242,0.726-0.384,1.119-0.438c1.591-0.217,2.97-1.021,4.45-1.563c0.421-0.153,0.816-0.415,1.174-0.697
					c0.923-0.724,1.826-1.471,2.717-2.231c0.369-0.314,0.751-0.647,1.025-1.045c0.56-0.813,1.269-1.481,1.966-2.158
					c0.492-0.477,0.923-1.018,1.361-1.547c0.989-1.196,2.027-2.362,2.941-3.607c1.016-1.388,1.942-2.849,2.867-4.3
					c0.529-0.83,1.138-1.575,1.852-2.258c1.468-1.409,2.92-2.849,4.32-4.324c1.021-1.078,2.17-1.971,3.362-2.823
					c2.269-1.621,4.515-3.274,6.796-4.878c2.327-1.632,4.686-3.22,7.025-4.836c0.402-0.276,0.802-0.56,1.176-0.876L111.001,61.748z
					 M143.939,104.104c-2.904,3.086-5.334,6.541-7.621,10.097c-0.09,0.146-0.188,0.292-0.256,0.452
					c-1.102,2.367-2.219,4.731-3.283,7.117c-1.071,2.393-2.057,4.813-3.144,7.19c-1.452,3.187-3.5,5.929-6.284,8.089
					c-0.412,0.326-0.789,0.676-1.175,1.016c-1.352,1.18-2.786,2.218-4.378,3.058c-2.54,1.336-5.016,2.803-7.586,4.087
					c-2.695,1.354-5.451,2.583-8.213,3.796c-3.147,1.37-6.093,3.079-9.02,4.873c-2.712,1.666-5.066,3.763-7.518,5.75
					c-2.218,1.795-3.705,4.132-4.911,6.685c-1.201,2.554-2.236,5.17-3.158,7.834c-0.252,0.723-0.644,1.401-0.986,2.096
					c-0.531,1.047-1.119,2.068-1.599,3.14c-0.725,1.587-1.544,3.058-2.933,4.188c-0.84,0.678-1.454,1.627-2.24,2.38
					c-1.056,1.003-2.126,1.991-3.449,2.674c-1.25,0.644-2.414,1.433-3.656,2.103c-1.442,0.769-2.918,1.487-4.387,2.211
					c-1.034,0.506-2.077,0.978-3.105,1.486c-1.85,0.899-3.231,2.271-4.092,4.143c-0.22,0.488-0.499,0.896-1.108,0.969
					c-0.258,0.031-0.505,0.207-0.787,0.322c-0.407-1.012-0.095-1.918,0.337-2.746c0.75-1.43,1.729-2.696,2.934-3.789
					c1.889-1.709,4.056-2.977,6.353-4.073c1.07-0.521,2.049-1.259,3.069-1.907c0.144-0.082,0.275-0.203,0.438-0.273
					c2.22-1.023,3.785-2.854,5.467-4.534c0.822-0.821,1.452-1.776,1.965-2.813c0.776-1.539,1.628-3.024,2.62-4.443
					c0.437-0.623,0.723-1.369,1.01-2.088c0.981-2.453,1.913-4.93,2.902-7.379c0.301-0.738,0.717-1.438,1.11-2.14
					c0.394-0.692,0.804-1.388,1.248-2.057c0.594-0.911,1.221-1.796,1.847-2.693c0.182-0.256,0.435-0.466,0.611-0.723
					c1.504-2.229,3.736-3.604,5.912-5.054c1.124-0.74,2.19-1.571,3.318-2.324c2.477-1.678,4.999-3.276,7.675-4.621
					c1.74-0.876,3.407-1.896,5.136-2.813c1.523-0.807,3.081-1.544,4.616-2.328c0.859-0.445,1.719-0.934,2.578-1.396
					c0.955-0.52,1.904-1.064,2.882-1.555c2.813-1.418,5.384-3.188,7.679-5.344c2.309-2.166,3.947-4.813,5.053-7.734
					c1.332-3.492,2.472-7.053,3.729-10.572c0.786-2.218,1.41-4.5,2.707-6.509c0.341-0.524,0.721-1.033,1.082-1.55
					c0.68-0.988,1.363-1.977,2.044-2.972c0.125-0.188,0.241-0.391,0.39-0.563c2.211-2.606,4.449-5.181,6.898-7.574
					c2.553-2.483,4.98-5.099,7.504-7.613c3.854-3.825,7.697-7.662,11.711-11.322c1.755-1.607,3.375-3.372,4.998-5.117
					c1.816-1.96,3.545-4.003,5.346-5.976c0.543-0.586,1.208-1.059,1.811-1.591c0.521-0.456,1.054-0.894,1.529-1.388
					c0.404-0.412,0.444-0.696,0.063-1.043c-1.085-0.981-2.064-2.086-3.368-2.793c-0.231-0.125-0.567-0.137-0.835-0.087
					c-0.958,0.175-1.925,0.35-2.861,0.615c-1.83,0.528-3.695,0.817-5.578,1.08c-3.356,0.465-6.701,1.029-10.049,1.56
					c-0.269,0.046-0.527,0.145-0.92,0.254c0.219,0.318,0.344,0.532,0.496,0.72c1.096,1.342,2.371,2.495,3.693,3.608
					c1.051,0.888,2.023,1.874,3.033,2.806c0.6,0.553,0.545,1.284,0.492,1.985c-0.014,0.213-0.24,0.458-0.431,0.595
					c-0.752,0.504-1.354,1.151-1.905,1.855c-0.104,0.139-0.217,0.271-0.336,0.395c-1.49,1.593-2.962,3.214-4.49,4.77
					c-2.063,2.078-4.176,4.114-6.264,6.169c-1.021,1.012-2.107,1.967-3.045,3.05c-1.736,2.01-3.727,3.749-5.598,5.618
					c-0.752,0.752-1.483,1.524-2.254,2.26c-0.744,0.71-1.523,1.385-2.295,2.076c-0.174,0.149-0.393,0.258-0.533,0.434
					c-0.905,1.12-2.123,1.84-3.313,2.594c-2.316,1.461-4.195,3.383-5.891,5.502c-1.497,1.879-2.564,4.021-3.684,6.125
					c-0.494,0.941-1.022,1.859-1.563,2.778c-1.475,2.569-2.792,5.205-3.926,7.954c-0.719,1.738-1.58,3.447-2.533,5.08
					c-1.811,3.093-4.346,5.498-7.496,7.207c-1.749,0.938-3.656,1.512-5.581,2.018c-1.918,0.512-3.848,0.961-5.664,1.795
					c-0.209,0.103-0.438,0.133-0.653,0.205c-1.336,0.453-2.693,0.85-3.987,1.387c-2.634,1.088-5.224,2.289-7.662,3.756
					c-3.825,2.307-7.48,4.871-10.375,8.324c-1.362,1.619-2.66,3.317-3.705,5.178c-0.299,0.521-0.675,1.005-1.021,1.492
					c-0.285,0.396-0.629,0.76-0.869,1.176c-1.003,1.703-2.224,3.234-3.583,4.635c-1.191,1.229-2.532,2.32-3.818,3.467
					c-0.282,0.248-0.618,0.424-0.894,0.68c-1.286,1.23-2.709,2.301-4.141,3.369c-1.02,0.752-2.065,1.398-3.204,1.967
					c-2.244,1.121-4.274,2.598-6.108,4.31c-1.062,0.987-1.715,2.293-2.374,3.569c-0.67,1.313-1.19,2.681-1.363,4.154
					c-0.002,0.03-0.01,0.063-0.017,0.088c-0.045,0.834-0.454,1.061-0.793,1.025c-0.371-0.042-0.896-0.766-0.913-1.248
					c-0.008-0.14,0.014-0.281,0.021-0.424c0.072-0.891,0.083-1.781,0.24-2.656c0.167-0.932,0.403-1.855,0.746-2.73
					c0.643-1.623,1.304-3.25,2.1-4.81c0.815-1.593,1.991-2.94,3.474-3.979c1.459-1.027,2.909-2.049,4.492-2.883
					c0.825-0.437,1.544-1.099,2.31-1.653c0.993-0.729,1.992-1.453,2.985-2.183c0.351-0.256,0.723-0.485,1.021-0.781
					c0.881-0.867,1.739-1.76,2.597-2.649c0.178-0.185,0.324-0.401,0.449-0.629c1.841-3.282,3.756-6.522,5.312-9.959
					c0.322-0.703,0.734-1.377,1.206-1.979c2.108-2.713,4.422-5.23,7.275-7.18c1.493-1.016,2.993-2.035,4.581-2.898
					c1.226-0.66,2.599-1.067,3.899-1.604c1.858-0.775,3.711-1.55,5.556-2.348c0.446-0.194,0.844-0.484,1.271-0.711
					c0.634-0.352,1.243-0.752,1.906-1.012c1.945-0.762,3.974-1.367,5.878-2.224c1.767-0.793,3.57-1.59,5.132-2.793
					c1.346-1.039,2.7-2.056,4.055-3.071c0.112-0.095,0.235-0.166,0.328-0.277c1.67-1.889,3.509-3.65,4.677-5.934
					c0.446-0.875,0.957-1.713,1.378-2.59c0.938-1.938,1.878-3.883,2.76-5.843c0.811-1.808,1.553-3.642,2.325-5.474
					c0.104-0.229,0.192-0.484,0.332-0.699c0.759-1.18,1.526-2.354,2.31-3.521c0.241-0.354,0.5-0.722,0.832-0.99
					c1.11-0.918,2.027-2.021,2.99-3.085c1.027-1.139,2.305-1.988,3.607-2.783c0.443-0.27,0.877-0.56,1.345-0.774
					c2.156-1.006,3.924-2.594,5.906-3.865c2.714-1.747,4.763-4.217,7.083-6.401c3.164-2.982,5.906-6.351,8.818-9.566
					c1.34-1.465,2.688-2.915,4.021-4.386c0.689-0.763,0.654-0.802,0.02-1.559c-1.771-2.089-3.813-3.903-5.83-5.74
					c-0.701-0.638-1.336-1.351-2.184-1.807c-0.427-0.229-0.85-0.481-1.298-0.663c-0.601-0.241-1.104-0.777-1.104-1.361
					c0-0.163,0.135-0.408,0.276-0.476c0.388-0.174,0.8-0.336,1.218-0.394c1.678-0.213,3.361-0.372,5.043-0.582
					c1.197-0.146,2.394-0.318,3.584-0.518c1.842-0.306,3.676-0.649,5.52-0.955c2.039-0.34,4.08-0.683,6.129-0.973
					c0.878-0.123,1.777-0.097,2.665-0.159c1.466-0.102,2.868-0.551,4.278-0.908c0.561-0.138,1.133-0.212,1.688-0.354
					c0.516-0.127,0.914,0.016,1.208,0.435c0.938,1.337,2.375,2.139,3.449,3.342c1.22,1.368,2.495,2.696,3.754,4.03
					c0.553,0.586,1.157,1.121,1.673,1.729c0.665,0.788,0.581,1.103-0.102,1.845c-0.58,0.623-1.039,1.364-1.623,1.983
					c-2.627,2.777-5.182,5.614-8.139,8.067c-1.699,1.408-3.209,3.043-4.76,4.623c-3.297,3.367-6.559,6.769-9.854,10.143
					c-1.646,1.687-3.305,3.361-4.967,5.03c-1.096,1.098-2.199,2.19-3.305,3.276L143.939,104.104z M156.023,43.16
					c-0.308-0.756-4.855-5.088-5.93-5.676c-0.505,0.742-0.711,1.604-0.999,2.436c-0.177,0.517-0.098,0.931,0.304,1.32
					c1.012,0.974,2.008,1.966,2.994,2.964c0.287,0.289,0.572,0.307,0.928,0.155c0.66-0.282,1.339-0.519,1.996-0.795
					C155.568,43.457,155.798,43.293,156.023,43.16z"/>
			</g>
		</g>
	</g>
	<g>
		<g>
			<g>
				<g>
					<path d="M381.614,102.492c-1.692,0.109-1.973-5.9-0.508-6.774c0.904-0.546,1.928,0.888,2.883,1.377
						c2.354,1.203,4.851,1.967,7.476,2.172c1.491,0.115,3.058,0.163,4.494-0.165c3.731-0.857,7.268-2.345,10.715-4.02
						c2.192-1.076,4.166-2.48,5.774-4.338c0.771-0.882,1.479-1.822,2.121-2.794c1.229-1.874,2.515-3.731,3.547-5.709
						c2.326-4.496,3.552-9.345,4.095-14.354c0.338-3.102,0.479-6.227,0.649-9.353c0.082-1.424,0.144-2.874,0.021-4.294
						c-0.315-3.588-0.714-7.171-1.152-10.747c-0.135-1.086-0.401-2.196-0.825-3.201c-1.121-2.64-2.4-5.209-4.062-7.558
						c-1.808-2.565-3.988-4.817-6.289-6.931c-2.847-2.613-5.717-5.201-8.595-7.773c-2.092-1.872-4.299-3.562-6.932-4.647
						c-2.174-0.896-4.399-1.728-6.438-2.882c-1.682-0.952-3.457-1.41-5.271-1.846c-0.818-0.195-1.654-0.373-2.492-0.482
						c-4.711-0.603-9.416-1.025-14.172-0.358c-3.531,0.493-7.086,0.729-10.604,1.396c-3.479,0.659-6.912,1.417-10.193,2.777
						c-1.633,0.676-3.31,1.271-4.7,2.4c-1.229,0.996-2.439,2.015-3.595,3.095c-2.573,2.412-4.526,5.224-5.301,8.732
						c-0.124,0.559-0.117,1.146-0.225,1.711c-0.346,1.8-0.842,3.582-1.031,5.396c-0.21,2.037-0.313,4.11,0.169,6.152
						c0.367,1.536,1.896,3.306,1.028,4.629c-0.692,1.06-3.979,1.683-4.982,0.913c-0.37-0.281-0.239-0.82-0.37-1.19
						c-0.881-2.475-1.425-5.009-1.467-7.654c-0.019-1.321-0.224-2.639-0.313-3.961c-0.166-2.407,0.123-4.784,0.785-7.093
						c0.329-1.157,0.828-2.294,1.438-3.331c0.876-1.484,1.895-2.885,2.907-4.278c0.621-0.861,1.341-1.658,2.039-2.464
						c0.815-0.942,1.658-1.869,2.494-2.795c0.125-0.135,0.271-0.251,0.422-0.358c3.961-2.888,8.084-5.484,12.666-7.321
						c3.457-1.383,6.932-2.673,10.627-3.275c0.252-0.043,0.502-0.104,0.76-0.131c3.029-0.338,6.057-0.71,9.09-0.987
						c1.492-0.136,3.02-0.254,4.5-0.1c2.914,0.3,5.854,0.504,8.723,1.183c0.855,0.202,1.736,0.323,2.576,0.574
						c0.473,0.14,0.885,0.479,1.328,0.713c0.223,0.118,0.451,0.264,0.693,0.293c2.555,0.345,4.799,1.609,7.166,2.488
						c1.158,0.43,2.186,1.207,3.27,1.82c1.793,1.012,3.566,2.053,5.383,3.013c1.18,0.623,2.268,1.342,3.318,2.158
						c1.771,1.376,3.658,2.599,5.439,3.961c1.135,0.868,2.174,1.861,3.243,2.812c1.369,1.221,2.729,2.466,4.097,3.686
						c1.852,1.654,3.502,3.466,4.699,5.668c0.975,1.803,2.021,3.575,3.041,5.358c0.092,0.158,0.182,0.321,0.309,0.465
						c1.557,1.791,2.4,3.939,3.027,6.188c0.522,1.877,1.055,3.75,1.594,5.627c0.961,3.382,1.434,6.822,1.328,10.354
						c-0.156,5.307-0.555,10.58-1.638,15.787c-0.854,4.106-2.313,7.977-4.45,11.587c-0.265,0.44-0.531,0.891-0.703,1.373
						c-0.633,1.758-1.64,3.29-2.877,4.668c-1.896,2.104-3.769,4.234-5.729,6.274c-2.099,2.188-4.629,3.846-7.125,5.549
						c-2.007,1.362-4.229,2.146-6.479,2.966c-2.957,1.084-6.011,1.004-9.047,0.961c-1.48-0.011-3-0.367-4.437-0.778
						c-2.263-0.657-4.466-1.496-6.688-2.255"/>
				</g>
				<path d="M327.049,61.749c1.903-1.836,3.87-3.614,5.678-5.535c2.916-3.101,6.094-5.93,8.967-9.076
					c2.727-2.991,5.655-5.8,8.532-8.651c0.813-0.802,1.769-1.468,2.648-2.201c0.336-0.273,0.668-0.548,0.981-0.841
					c1.813-1.681,3.625-3.362,5.424-5.054c0.646-0.61,1.277-1.239,1.885-1.895c0.777-0.838,1.195-0.858,1.974-0.021
					c0.103,0.105,0.177,0.247,0.291,0.315c1.742,1.032,2.729,2.871,4.334,4.046c0.604,0.981,1.574,1.573,2.416,2.308
					c0.474,0.411,0.851,0.934,1.317,1.354c0.914,0.826,1.898,1.579,2.791,2.435c1.011,0.97,1.957,2.019,2.933,3.032
					c0.558,0.577,1.106,1.166,1.677,1.73c1.875,1.853,3.745,3.708,5.651,5.535c0.532,0.511,1.162,0.924,1.744,1.385
					c0.396,0.317,0.788,0.639,1.229,0.991c0.043,0.988-0.003,1.107-1.021,1.164c-0.912,0.05-1.826-0.058-2.744-0.093
					c-0.688-0.023-1.369-0.073-2.052-0.039c-1.668,0.087-3.301,0.424-4.946,0.691c-1.414,0.23-2.86,0.238-4.291,0.395
					c-3.088,0.33-6.172,0.668-9.252,1.052c-1.683,0.211-3.349,0.535-5.022,0.793c-0.531,0.081-0.953,0.285-1.328,0.698
					c-0.563,0.614-1.189,1.172-1.813,1.726c-2.942,2.618-5.558,5.575-8.385,8.313c-4.192,4.063-8.051,8.441-12.157,12.588
					c-0.812,0.821-1.648,1.592-2.605,2.234c-0.571,0.389-1.074,0.877-1.66,1.235c-0.909,0.545-1.867,1.014-2.799,1.52
					c-0.707,0.387-1.4,0.786-2.103,1.182c-0.649,0.367-1.313,0.708-1.943,1.109c-0.721,0.465-1.471,0.914-2.1,1.487
					c-1.273,1.165-2.354,2.5-3.22,4.024c-0.978,1.717-2.063,3.384-3.079,5.087c-0.334,0.565-0.582,1.184-0.883,1.772
					c-0.547,1.071-1.117,2.14-1.652,3.217c-0.494,1.009-1.043,1.994-1.412,3.037c-0.5,1.396-1.174,2.681-1.938,3.933
					c-1.589,2.604-3.107,5.242-4.676,7.857c-0.456,0.764-0.985,1.482-1.479,2.221c-0.992,1.479-1.976,2.961-2.973,4.437
					c-0.189,0.282-0.437,0.532-0.652,0.804c-0.195,0.245-0.438,0.471-0.564,0.744c-0.346,0.729-0.897,1.249-1.508,1.746
					c-0.668,0.547-1.284,1.146-1.935,1.712c-0.19,0.171-0.395,0.334-0.614,0.462c-1.213,0.694-2.388,1.438-3.709,1.979
					c-3.588,1.469-7.197,2.867-10.914,3.983c-1.396,0.414-2.83,0.79-4.185,1.335c-1.791,0.717-3.464,1.67-4.944,2.938
					c-1.931,1.648-3.781,3.386-5.291,5.42c-1.1,1.492-2.055,3.109-2.957,4.738c-0.729,1.324-1.354,2.729-1.914,4.14
					c-0.813,2.021-1.483,4.104-2.301,6.122c-0.558,1.38-1.226,2.723-1.916,4.043c-0.261,0.497-0.736,0.875-1.084,1.334
					c-1.232,1.632-2.928,2.74-4.438,4.063c-0.149,0.131-0.337,0.229-0.513,0.312c-2.701,1.304-5.504,1.766-8.453,1.038
					c-1.032-0.252-2.072-0.473-3.106-0.719c-0.813-0.19-1.214-0.703-1.24-1.648c0.826-0.369,1.713-0.549,2.646-0.477
					c0.228,0.02,0.453,0.088,0.681,0.067c1.4-0.128,2.801-0.254,4.197-0.431c0.474-0.061,0.955-0.211,1.39-0.402
					c1.224-0.529,2.321-1.266,3.298-2.174c0.94-0.878,1.514-2.012,2.144-3.111c0.704-1.252,1.192-2.604,1.743-3.931
					c1.078-2.603,2.311-5.138,3.477-7.699c0.198-0.442,0.4-0.888,0.556-1.351c0.783-2.354,1.604-4.695,2.871-6.825
					c1.187-2.001,2.573-3.876,4.62-5.135c0.511-0.313,0.976-0.71,1.433-1.106c0.815-0.708,1.688-1.275,2.721-1.635
					c0.779-0.271,1.525-0.66,2.294-0.979c3.59-1.494,7.319-2.595,11.049-3.641c2.416-0.682,4.627-1.706,6.836-2.816
					c0.153-0.071,0.311-0.156,0.443-0.254c3.521-2.629,6.839-5.475,9.265-9.179c1.099-1.682,2.24-3.351,2.845-5.308
					c0.02-0.057,0.045-0.105,0.066-0.158c1.229-2.527,2.459-5.063,3.69-7.594c0.797-1.627,1.582-3.254,2.396-4.872
					c0.337-0.664,0.73-1.303,1.104-1.946c0.172-0.298,0.373-0.586,0.535-0.89c1.239-2.336,2.506-4.653,3.692-7.012
					c1.88-3.752,4.63-6.672,8.222-8.831c2.567-1.542,5.302-2.758,7.994-4.049c0.457-0.221,0.804-0.516,1.117-0.905
					c0.484-0.605,1.057-1.14,1.572-1.717c2.36-2.668,4.85-5.218,7.402-7.703c3.043-2.97,6.021-6.005,9.071-8.971
					c1.336-1.301,2.781-2.489,4.172-3.74c0.512-0.46,0.996-0.956,1.498-1.428c0.387-0.366,0.826-0.552,1.383-0.601
					c1.086-0.096,2.16-0.296,3.232-0.462c1.903-0.292,3.813-0.554,5.707-0.89c1.328-0.236,2.639-0.561,3.948-0.87
					c1.849-0.436,3.689-0.883,5.527-1.347c0.512-0.131,1.058-0.225,1.51-0.521c-0.399-1.117-0.924-1.425-1.903-1.011
					c-1.605,0.687-3.355,1.044-4.834,2.041c-0.502,0.34-0.761,0.229-1.203-0.217c-1.767-1.765-3.543-3.515-5.303-5.284
					c-0.486-0.489-0.955-0.995-1.396-1.523c-0.714-0.857-0.697-1.232-0.087-2.154c0.601-0.913,1.175-1.84,1.74-2.771
					c0.121-0.199,0.168-0.448,0.109-0.753c-0.195,0.192-0.414,0.369-0.586,0.584c-1.061,1.363-2.313,2.538-3.578,3.715
					c-3.26,3.03-6.605,5.968-9.656,9.231c-3.041,3.251-6.111,6.481-9.364,9.53c-2.428,2.281-4.658,4.765-6.996,7.14
					c-1.408,1.437-2.781,2.924-4.307,4.229c-1.961,1.678-4.064,3.168-6.423,4.304c-1.779,0.855-3.438,1.972-5.146,2.972
					c-0.197,0.12-0.365,0.282-0.568,0.384c-2.766,1.381-4.897,3.604-7.336,5.419c-0.227,0.17-0.453,0.386-0.594,0.623
					c-1.031,1.683-2.516,2.988-3.729,4.51c-0.735,0.926-1.38,1.907-2.069,2.859c-1.294,1.792-2.551,3.615-3.897,5.373
					c-0.855,1.118-1.74,2.208-2.323,3.512c-0.123,0.282-0.325,0.54-0.509,0.792c-0.594,0.81-1.159,1.642-1.81,2.415
					c-0.702,0.834-1.444,1.636-2.226,2.396c-1.486,1.45-3.144,2.691-4.938,3.734c-1.533,0.892-3.16,1.494-4.896,1.845
					c-2.111,0.431-4.214,0.935-6.315,1.386c-0.928,0.204-1.88,0.318-2.788,0.566c-1.466,0.402-2.926,0.861-4.359,1.348
					c-1.522,0.518-3.026,1.092-4.532,1.662c-1.938,0.732-3.646,1.822-5.168,3.214c-0.832,0.759-1.665,1.509-2.491,2.263
					c-0.129,0.115-0.257,0.236-0.352,0.373c-2.092,3.099-4.229,6.183-5.723,9.629c-1.021,2.361-2.33,4.547-3.887,6.584
					c-0.265,0.338-0.572,0.644-0.896,0.928c-0.711,0.624-1.408,1.279-2.182,1.827c-0.93,0.659-1.914,1.271-2.919,1.813
					c-1.462,0.795-2.936,1.586-4.597,1.914c-0.613,0.118-1.236,0.219-1.862,0.297c-0.513,0.063-1.034,0.047-1.547,0.129
					c-2.98,0.457-5.768-0.166-8.457-1.439c-0.722-0.346-1.465-0.654-2.193-0.997c-0.541-0.255-1.063-0.563-1.614-0.797
					c-0.575-0.244-1.184-0.429-1.778-0.626c-0.536-0.178-1.036-0.434-1.656-0.379c-0.271,0.023-0.645-0.317-0.846-0.588
					c-0.186-0.252,0.084-0.814,0.509-0.963c0.557-0.197,1.176-0.396,1.74-0.345c1.467,0.122,2.862,0.5,4.233,1.089
					c1.389,0.6,2.869,1.01,4.334,1.393c0.591,0.146,1.253,0.037,1.884-0.001c1.028-0.06,2.06-0.2,3.089-0.214
					c1.064-0.019,2.096-0.232,2.949-0.832c1.695-1.182,3.399-2.375,4.941-3.739c1.235-1.097,2.266-2.418,2.963-3.979
					c0.559-1.248,1.327-2.41,2-3.619c1.551-2.787,3.387-5.393,5.073-8.088c0.289-0.461,0.712-0.828,1.025-1.281
					c1.093-1.563,2.472-2.84,3.875-4.119c1.367-1.25,2.775-2.363,4.443-3.201c1.356-0.682,2.582-1.625,3.904-2.363
					c1.913-1.072,3.868-2.001,6.026-2.494c1.967-0.451,3.881-1.062,5.822-1.58c0.828-0.219,1.676-0.357,2.371-0.938
					c0.293-0.242,0.726-0.384,1.118-0.438c1.591-0.217,2.97-1.021,4.45-1.563c0.421-0.153,0.815-0.415,1.174-0.697
					c0.924-0.724,1.826-1.471,2.717-2.231c0.369-0.314,0.752-0.647,1.025-1.045c0.561-0.813,1.27-1.481,1.966-2.158
					c0.492-0.477,0.923-1.018,1.36-1.547c0.989-1.196,2.026-2.362,2.94-3.607c1.017-1.388,1.942-2.849,2.867-4.3
					c0.529-0.83,1.139-1.575,1.852-2.258c1.47-1.409,2.921-2.849,4.32-4.324c1.021-1.078,2.17-1.971,3.362-2.823
					c2.269-1.621,4.515-3.274,6.796-4.878c2.327-1.632,4.686-3.22,7.024-4.836c0.402-0.276,0.803-0.56,1.177-0.876L327.049,61.749z
					 M359.987,104.104c-2.903,3.086-5.334,6.541-7.621,10.098c-0.09,0.146-0.188,0.292-0.256,0.451
					c-1.102,2.367-2.219,4.732-3.283,7.119c-1.071,2.392-2.057,4.812-3.145,7.189c-1.451,3.186-3.499,5.93-6.282,8.089
					c-0.412,0.326-0.789,0.675-1.176,1.015c-1.352,1.181-2.785,2.219-4.378,3.059c-2.54,1.336-5.016,2.803-7.586,4.087
					c-2.694,1.354-5.451,2.583-8.213,3.796c-3.146,1.37-6.094,3.079-9.021,4.873c-2.712,1.666-5.065,3.762-7.52,5.75
					c-2.217,1.795-3.705,4.133-4.91,6.684c-1.2,2.555-2.235,5.172-3.157,7.836c-0.252,0.722-0.646,1.4-0.986,2.095
					c-0.531,1.047-1.119,2.069-1.599,3.14c-0.727,1.588-1.545,3.059-2.934,4.189c-0.84,0.677-1.455,1.626-2.24,2.379
					c-1.057,1.003-2.127,1.99-3.448,2.674c-1.25,0.645-2.414,1.434-3.656,2.102c-1.441,0.77-2.918,1.488-4.387,2.211
					c-1.034,0.508-2.077,0.979-3.105,1.487c-1.85,0.899-3.229,2.271-4.092,4.142c-0.22,0.488-0.499,0.896-1.107,0.97
					c-0.258,0.032-0.506,0.207-0.787,0.321c-0.406-1.01-0.096-1.918,0.337-2.744c0.75-1.432,1.729-2.697,2.935-3.79
					c1.89-1.709,4.056-2.976,6.353-4.073c1.07-0.521,2.051-1.259,3.07-1.906c0.145-0.084,0.274-0.205,0.438-0.275
					c2.22-1.022,3.784-2.853,5.467-4.533c0.822-0.821,1.452-1.776,1.965-2.813c0.776-1.539,1.629-3.025,2.62-4.445
					c0.437-0.622,0.724-1.368,1.011-2.086c0.98-2.455,1.912-4.93,2.901-7.379c0.301-0.739,0.717-1.438,1.109-2.141
					c0.395-0.693,0.805-1.388,1.248-2.057c0.595-0.911,1.222-1.797,1.848-2.693c0.183-0.256,0.435-0.466,0.609-0.723
					c1.504-2.229,3.736-3.604,5.912-5.055c1.125-0.74,2.19-1.57,3.318-2.324c2.477-1.678,4.999-3.275,7.676-4.62
					c1.739-0.876,3.406-1.897,5.135-2.813c1.523-0.806,3.082-1.543,4.617-2.328c0.858-0.445,1.719-0.933,2.578-1.396
					c0.955-0.521,1.904-1.065,2.882-1.554c2.813-1.42,5.384-3.189,7.679-5.346c2.31-2.164,3.947-4.813,5.054-7.734
					c1.332-3.491,2.471-7.053,3.729-10.571c0.785-2.218,1.41-4.5,2.707-6.509c0.34-0.524,0.721-1.033,1.082-1.549
					c0.68-0.989,1.363-1.978,2.043-2.973c0.125-0.188,0.242-0.391,0.391-0.563c2.211-2.606,4.449-5.181,6.898-7.574
					c2.553-2.483,4.98-5.099,7.504-7.613c3.854-3.825,7.697-7.662,11.711-11.322c1.754-1.607,3.375-3.372,4.998-5.117
					c1.816-1.96,3.545-4.003,5.346-5.976c0.543-0.586,1.207-1.059,1.811-1.591c0.521-0.456,1.054-0.894,1.529-1.388
					c0.404-0.412,0.443-0.696,0.063-1.043c-1.086-0.981-2.063-2.086-3.369-2.793c-0.229-0.125-0.565-0.137-0.834-0.087
					c-0.959,0.175-1.926,0.35-2.86,0.615c-1.83,0.528-3.695,0.817-5.578,1.08c-3.357,0.465-6.701,1.029-10.049,1.56
					c-0.271,0.046-0.527,0.145-0.921,0.254c0.22,0.318,0.345,0.532,0.496,0.72c1.097,1.342,2.371,2.495,3.692,3.608
					c1.052,0.888,2.023,1.874,3.033,2.806c0.601,0.553,0.545,1.284,0.492,1.985c-0.014,0.213-0.24,0.458-0.432,0.595
					c-0.752,0.504-1.354,1.151-1.904,1.855c-0.104,0.139-0.217,0.271-0.336,0.395c-1.49,1.593-2.963,3.214-4.49,4.77
					c-2.063,2.078-4.176,4.114-6.264,6.169c-1.021,1.012-2.107,1.967-3.045,3.05c-1.736,2.01-3.727,3.749-5.598,5.618
					c-0.752,0.752-1.484,1.524-2.254,2.26c-0.744,0.71-1.523,1.385-2.295,2.076c-0.174,0.149-0.394,0.258-0.533,0.434
					c-0.906,1.12-2.123,1.84-3.313,2.595c-2.315,1.459-4.194,3.383-5.891,5.502c-1.497,1.877-2.563,4.021-3.684,6.123
					c-0.494,0.942-1.022,1.86-1.563,2.779c-1.475,2.568-2.792,5.205-3.926,7.954c-0.719,1.737-1.58,3.446-2.533,5.08
					c-1.811,3.093-4.347,5.498-7.496,7.207c-1.75,0.938-3.656,1.512-5.582,2.018c-1.918,0.513-3.848,0.962-5.664,1.796
					c-0.209,0.102-0.438,0.133-0.651,0.204c-1.336,0.453-2.693,0.851-3.986,1.388c-2.635,1.086-5.225,2.287-7.662,3.756
					c-3.826,2.306-7.479,4.869-10.375,8.324c-1.362,1.617-2.66,3.316-3.705,5.178c-0.299,0.521-0.676,1.004-1.021,1.49
					c-0.285,0.396-0.629,0.76-0.869,1.178c-1.003,1.701-2.225,3.232-3.583,4.634c-1.19,1.229-2.532,2.321-3.817,3.467
					c-0.282,0.248-0.619,0.423-0.895,0.681c-1.286,1.229-2.709,2.301-4.142,3.369c-1.021,0.75-2.064,1.397-3.204,1.967
					c-2.243,1.121-4.273,2.597-6.107,4.309c-1.063,0.986-1.715,2.293-2.374,3.57c-0.67,1.312-1.19,2.68-1.362,4.154
					c-0.002,0.029-0.01,0.063-0.018,0.086c-0.045,0.836-0.454,1.062-0.793,1.026c-0.371-0.042-0.896-0.765-0.913-1.248
					c-0.008-0.14,0.015-0.282,0.021-0.424c0.072-0.89,0.084-1.781,0.24-2.656c0.168-0.932,0.403-1.854,0.746-2.731
					c0.644-1.623,1.305-3.25,2.1-4.809c0.816-1.593,1.992-2.941,3.476-3.98c1.459-1.026,2.909-2.049,4.492-2.883
					c0.823-0.436,1.544-1.098,2.311-1.652c0.992-0.729,1.991-1.453,2.984-2.184c0.352-0.254,0.723-0.484,1.021-0.779
					c0.881-0.868,1.738-1.76,2.598-2.65c0.178-0.184,0.322-0.402,0.447-0.629c1.843-3.281,3.757-6.521,5.313-9.959
					c0.322-0.703,0.733-1.377,1.206-1.98c2.107-2.713,4.422-5.229,7.273-7.179c1.494-1.016,2.994-2.034,4.582-2.899
					c1.227-0.659,2.6-1.066,3.898-1.603c1.857-0.774,3.711-1.55,5.557-2.348c0.445-0.194,0.844-0.484,1.271-0.711
					c0.634-0.353,1.243-0.751,1.905-1.013c1.944-0.761,3.975-1.365,5.879-2.223c1.767-0.793,3.569-1.59,5.132-2.793
					c1.347-1.039,2.7-2.056,4.056-3.072c0.111-0.094,0.234-0.164,0.327-0.277c1.671-1.889,3.509-3.649,4.678-5.932
					c0.446-0.875,0.957-1.714,1.378-2.591c0.938-1.938,1.878-3.883,2.76-5.843c0.812-1.807,1.554-3.643,2.325-5.473
					c0.104-0.229,0.192-0.485,0.332-0.7c0.759-1.181,1.526-2.354,2.311-3.521c0.24-0.354,0.5-0.723,0.832-0.991
					c1.109-0.918,2.026-2.021,2.989-3.085c1.027-1.139,2.306-1.988,3.606-2.783c0.443-0.27,0.878-0.56,1.346-0.774
					c2.154-1.006,3.923-2.594,5.904-3.865c2.716-1.747,4.765-4.217,7.084-6.401c3.164-2.982,5.906-6.351,8.818-9.566
					c1.34-1.465,2.688-2.915,4.021-4.386c0.689-0.763,0.654-0.802,0.02-1.559c-1.771-2.089-3.813-3.903-5.83-5.74
					c-0.701-0.638-1.336-1.351-2.184-1.807c-0.428-0.229-0.85-0.481-1.299-0.663c-0.6-0.241-1.104-0.777-1.104-1.361
					c0-0.163,0.135-0.408,0.274-0.476c0.39-0.174,0.801-0.336,1.219-0.394c1.679-0.213,3.361-0.372,5.043-0.582
					c1.197-0.146,2.394-0.318,3.584-0.518c1.843-0.306,3.677-0.649,5.521-0.955c2.039-0.34,4.08-0.683,6.129-0.973
					c0.877-0.123,1.777-0.097,2.664-0.159c1.467-0.102,2.869-0.551,4.279-0.908c0.561-0.138,1.133-0.212,1.688-0.354
					c0.516-0.127,0.914,0.016,1.207,0.435c0.939,1.337,2.375,2.139,3.449,3.342c1.221,1.368,2.496,2.696,3.754,4.03
					c0.553,0.586,1.158,1.121,1.674,1.729c0.664,0.788,0.58,1.103-0.102,1.845c-0.58,0.623-1.039,1.364-1.623,1.983
					c-2.627,2.777-5.183,5.614-8.139,8.067c-1.699,1.408-3.21,3.043-4.761,4.623c-3.297,3.367-6.56,6.769-9.854,10.143
					c-1.646,1.687-3.305,3.361-4.967,5.03c-1.096,1.098-2.199,2.19-3.305,3.276L359.987,104.104z M372.071,43.161
					c-0.309-0.756-4.854-5.088-5.93-5.676c-0.506,0.742-0.711,1.604-1,2.436c-0.176,0.517-0.098,0.931,0.305,1.32
					c1.013,0.974,2.008,1.966,2.994,2.964c0.287,0.289,0.572,0.307,0.928,0.155c0.66-0.282,1.338-0.519,1.996-0.795
					C371.616,43.458,371.844,43.294,372.071,43.161z"/>
			</g>
		</g>
	</g>
</g>
</svg>
